<svg xmlns="http://www.w3.org/2000/svg" xmlns:xlink="http://www.w3.org/1999/xlink" width="67.637" height="67.637" viewBox="0 0 67.637 67.637">
  <defs>
    <filter id="Icon_awesome-github" x="0" y="0" width="67.637" height="67.637" filterUnits="userSpaceOnUse">
      <feOffset dy="3" input="SourceAlpha"/>
      <feGaussianBlur stdDeviation="3" result="blur"/>
      <feFlood flood-opacity="0.161"/>
      <feComposite operator="in" in2="blur"/>
      <feComposite in="SourceGraphic"/>
    </filter>
  </defs>
  <g transform="matrix(1, 0, 0, 1, 0, 0)" filter="url(#Icon_awesome-github)">
    <path id="Icon_awesome-github-2" data-name="Icon awesome-github" d="M13.062,32.006c0,.161-.181.291-.409.291-.26.024-.441-.1-.441-.291,0-.161.181-.291.409-.291C12.857,31.691,13.062,31.82,13.062,32.006Zm-2.449-.363c-.055.161.1.347.339.4a.365.365,0,0,0,.488-.162c.047-.161-.1-.347-.339-.42A.4.4,0,0,0,10.613,31.643Zm3.48-.137c-.228.057-.386.21-.362.4.024.161.228.266.465.21s.386-.21.362-.371S14.321,31.481,14.093,31.506ZM19.273.563C8.353.563,0,9.065,0,20.265A20.215,20.215,0,0,0,13.345,39.58c1.008.186,1.362-.452,1.362-.977,0-.5-.024-3.262-.024-4.958,0,0-5.511,1.211-6.669-2.406,0,0-.9-2.35-2.189-2.955,0,0-1.8-1.268.126-1.244a4.139,4.139,0,0,1,3.039,2.083c1.724,3.117,4.614,2.221,5.74,1.688a4.533,4.533,0,0,1,1.26-2.721c-4.4-.5-8.842-1.155-8.842-8.923a6.2,6.2,0,0,1,1.858-4.756,7.811,7.811,0,0,1,.2-5.483c1.645-.525,5.432,2.18,5.432,2.18a18.152,18.152,0,0,1,9.889,0S28.32,8.4,29.965,8.928a7.808,7.808,0,0,1,.2,5.483A6.35,6.35,0,0,1,32.2,19.167c0,7.792-4.637,8.414-9.038,8.923A4.841,4.841,0,0,1,24.5,31.837c0,2.721-.024,6.088-.024,6.751,0,.525.362,1.163,1.362.977,7.873-2.681,13.211-10.344,13.211-19.3A19.541,19.541,0,0,0,19.273.563ZM7.653,28.413c-.1.081-.079.266.055.42.126.129.307.186.409.081.1-.081.079-.266-.055-.42C7.936,28.364,7.755,28.308,7.653,28.413Zm-.85-.654c-.055.1.024.234.181.315a.231.231,0,0,0,.339-.057c.055-.1-.024-.234-.181-.315C6.983,27.654,6.858,27.678,6.8,27.759Zm2.551,2.875c-.126.1-.079.347.1.5.181.186.409.21.512.081.1-.1.055-.347-.1-.5C9.692,30.528,9.456,30.5,9.353,30.633Zm-.9-1.187c-.126.081-.126.291,0,.476s.339.266.441.186a.375.375,0,0,0,0-.5C8.786,29.422,8.582,29.341,8.456,29.446Z" transform="translate(8.82 18.18) rotate(-19)" fill="#1a1e22"/>
  </g>
</svg>
