<svg xmlns="http://www.w3.org/2000/svg" width="22.815" height="22.814" viewBox="0 0 22.815 22.814">
  <path id="Icon_awesome-linkedin" data-name="Icon awesome-linkedin" d="M21.185,2.25H1.625A1.637,1.637,0,0,0,0,3.895V23.42a1.637,1.637,0,0,0,1.625,1.645H21.185a1.641,1.641,0,0,0,1.63-1.645V3.895A1.641,1.641,0,0,0,21.185,2.25ZM6.9,21.805H3.514V10.918H6.9V21.805ZM5.2,9.431A1.961,1.961,0,1,1,7.165,7.47,1.961,1.961,0,0,1,5.2,9.431ZM19.571,21.805H16.189v-5.3c0-1.263-.025-2.887-1.757-2.887-1.762,0-2.032,1.375-2.032,2.8v5.388H9.019V10.918h3.244V12.4h.046a3.562,3.562,0,0,1,3.2-1.757c3.422,0,4.059,2.256,4.059,5.189Z" transform="translate(0 -2.25)" fill="#f0f0f0"/>
</svg>
