<svg xmlns="http://www.w3.org/2000/svg" xmlns:xlink="http://www.w3.org/1999/xlink" width="67.637" height="67.637" viewBox="0 0 67.637 67.637">
  <defs>
    <filter id="Icon_simple-next-dot-js" x="0" y="0" width="67.637" height="67.637" filterUnits="userSpaceOnUse">
      <feOffset dy="3" input="SourceAlpha"/>
      <feGaussianBlur stdDeviation="3" result="blur"/>
      <feFlood flood-opacity="0.161"/>
      <feComposite operator="in" in2="blur"/>
      <feComposite in="SourceGraphic"/>
    </filter>
  </defs>
  <g transform="matrix(1, 0, 0, 1, 0, 0)" filter="url(#Icon_simple-next-dot-js)">
    <path id="Icon_simple-next-dot-js-2" data-name="Icon simple-next-dot-js" d="M28.985,36.615c-.145.076-.137.107.008.034a.371.371,0,0,0,.114-.076C29.107,36.547,29.1,36.55,28.985,36.615Zm.29-.153c-.068.054-.068.057.015.015a.234.234,0,0,0,.085-.057C29.374,36.389,29.354,36.4,29.275,36.462Zm.19-.116c-.068.054-.068.057.015.015a.234.234,0,0,0,.085-.057C29.564,36.274,29.545,36.282,29.465,36.347Zm.19-.114c-.068.054-.068.057.015.015a.234.234,0,0,0,.085-.057C29.755,36.16,29.735,36.168,29.655,36.233Zm.264-.171c-.133.085-.176.142-.057.076.085-.049.221-.153.2-.156A.758.758,0,0,0,29.919,36.062ZM18.247.009c-.085.008-.351.034-.592.054A19.568,19.568,0,0,0,3.624,8.155,19.325,19.325,0,0,0,.177,16.687,14.972,14.972,0,0,0,0,19.531a14.981,14.981,0,0,0,.176,2.844A19.606,19.606,0,0,0,13.533,38.151a20.631,20.631,0,0,0,4.122.854,35.86,35.86,0,0,0,3.741,0,19.711,19.711,0,0,0,7.034-2.057c.335-.172.4-.218.355-.255q-1.6-2.12-3.179-4.263l-3.123-4.218-3.912-5.79q-1.951-2.906-3.939-5.786c-.015,0-.031,2.569-.037,5.71-.011,5.5-.015,5.721-.085,5.851a.69.69,0,0,1-.335.347c-.122.062-.229.073-.805.073h-.661l-.176-.111a.719.719,0,0,1-.255-.278l-.08-.172.008-7.653.011-7.656.119-.148a1.036,1.036,0,0,1,.283-.233c.156-.076.218-.085.879-.085.779,0,.908.031,1.111.252q2.375,3.535,4.711,7.1c2.535,3.843,6,9.091,7.7,11.669l3.092,4.683.156-.1a20.08,20.08,0,0,0,4.011-3.52,19.429,19.429,0,0,0,4.6-9.981,14.971,14.971,0,0,0,.176-2.844,14.982,14.982,0,0,0-.176-2.844A19.606,19.606,0,0,0,25.521.914,20.424,20.424,0,0,0,21.456.063c-.366-.037-2.89-.08-3.206-.049ZM26.24,11.82a.766.766,0,0,1,.386.451c.031.1.037,2.221.031,7l-.011,6.864-1.211-1.855-1.214-1.855V17.439c0-3.225.015-5.038.037-5.126a.788.788,0,0,1,.378-.482c.156-.08.213-.088.814-.088C26.014,11.743,26.113,11.751,26.24,11.82Z" transform="translate(9 18.71) rotate(-19)" fill="#0d1321"/>
  </g>
</svg>
