<svg xmlns="http://www.w3.org/2000/svg" xmlns:xlink="http://www.w3.org/1999/xlink" width="67.637" height="67.637" viewBox="0 0 67.637 67.637">
  <defs>
    <filter id="Icon_simple-react" x="0" y="0" width="67.637" height="67.637" filterUnits="userSpaceOnUse">
      <feOffset dy="3" input="SourceAlpha"/>
      <feGaussianBlur stdDeviation="3" result="blur"/>
      <feFlood flood-opacity="0.161"/>
      <feComposite operator="in" in2="blur"/>
      <feComposite in="SourceGraphic"/>
    </filter>
  </defs>
  <g transform="matrix(1, 0, 0, 1, 0, 0)" filter="url(#Icon_simple-react)">
    <path id="Icon_simple-react-2" data-name="Icon simple-react" d="M19.525,17.6a3.715,3.715,0,0,0-3.48,3.912,3.715,3.715,0,0,0,3.48,3.912,3.715,3.715,0,0,0,3.48-3.912A3.715,3.715,0,0,0,19.525,17.6ZM9.776,29.292l-.768-.219C3.284,27.446,0,24.687,0,21.5s3.284-5.944,9.008-7.569l.768-.218.216.856a46.448,46.448,0,0,0,2.218,6.543l.164.39-.164.39a46.007,46.007,0,0,0-2.218,6.543ZM8.651,15.932C4.3,17.306,1.63,19.407,1.63,21.5s2.67,4.2,7.021,5.57a49.191,49.191,0,0,1,1.923-5.57,48.8,48.8,0,0,1-1.923-5.57ZM29.275,29.292l-.216-.858a46.1,46.1,0,0,0-2.219-6.542l-.164-.39.164-.39a46.229,46.229,0,0,0,2.219-6.543l.216-.856.77.218c5.723,1.626,9.006,4.385,9.006,7.571s-3.284,5.944-9.006,7.569Zm-.8-7.789a48.754,48.754,0,0,1,1.923,5.57c4.353-1.375,7.021-3.477,7.021-5.57s-2.67-4.2-7.021-5.57a48.871,48.871,0,0,1-1.923,5.57ZM8.64,15.923l-.216-.854C6.814,8.694,7.3,4.126,9.763,2.531,12.176.966,16.05,2.815,20.11,7.5l.553.638-.553.638A42.482,42.482,0,0,0,16.169,14.2l-.22.353-.382.037a34.606,34.606,0,0,0-6.159,1.116ZM11.725,3.8a2.075,2.075,0,0,0-1.147.316c-1.617,1.048-1.9,4.691-.789,9.607a36.716,36.716,0,0,1,5.26-.916,44.906,44.906,0,0,1,3.339-4.652C15.85,5.375,13.447,3.8,11.725,3.8Zm15.6,37.238h0c-2.319,0-5.3-1.962-8.386-5.528l-.553-.638.553-.638A42.447,42.447,0,0,0,22.881,28.8l.22-.353.381-.037A34.564,34.564,0,0,0,29.643,27.3l.768-.218.218.856c1.606,6.371,1.119,10.942-1.341,12.534A3.543,3.543,0,0,1,27.327,41.036Zm-6.665-6.183c2.538,2.778,4.942,4.354,6.663,4.354h0a2.069,2.069,0,0,0,1.145-.316c1.617-1.048,1.905-4.693.789-9.608A36.565,36.565,0,0,1,24,30.2a44.6,44.6,0,0,1-3.337,4.654Zm9.748-18.93-.768-.218a34.345,34.345,0,0,0-6.162-1.116l-.381-.037-.22-.353a42.236,42.236,0,0,0-3.939-5.426l-.553-.638.553-.638C23,2.816,26.872.967,29.288,2.531c2.46,1.595,2.948,6.163,1.341,12.536ZM24,12.805a36.45,36.45,0,0,1,5.262.916c1.116-4.916.828-8.559-.789-9.607s-4.629.556-7.81,4.038A44.914,44.914,0,0,1,24,12.805ZM11.725,41.036a3.543,3.543,0,0,1-1.962-.563C7.3,38.88,6.814,34.312,8.424,27.938l.215-.856.768.218a34.529,34.529,0,0,0,6.159,1.114l.382.037.218.353a42.564,42.564,0,0,0,3.941,5.428l.553.638-.553.638C17.018,39.074,14.04,41.036,11.725,41.036ZM9.789,29.282c-1.116,4.916-.828,8.561.789,9.608,1.606,1.03,4.626-.558,7.81-4.038A45.182,45.182,0,0,1,15.049,30.2a36.5,36.5,0,0,1-5.26-.916Zm9.737,1.148c-1.339,0-2.716-.066-4.094-.194l-.382-.037-.22-.353q-1.169-1.888-2.2-3.881t-1.9-4.075l-.163-.39.163-.39q.873-2.081,1.9-4.075c.674-1.309,1.414-2.615,2.2-3.881l.22-.353.382-.037a43.14,43.14,0,0,1,8.189,0l.381.037.218.353a56.89,56.89,0,0,1,4.1,7.955l.164.39-.164.39a56.121,56.121,0,0,1-4.1,7.955L24,30.2l-.381.037C22.243,30.365,20.865,30.431,19.525,30.431Zm-3.575-1.982a42.063,42.063,0,0,0,7.151,0A55,55,0,0,0,26.675,21.5,54.2,54.2,0,0,0,23.1,14.557a42.044,42.044,0,0,0-7.15,0A54,54,0,0,0,12.376,21.5a55.2,55.2,0,0,0,3.575,6.946Z" transform="translate(8.35 16.84) rotate(-19)" fill="#00d8ff"/>
  </g>
</svg>
