<svg xmlns="http://www.w3.org/2000/svg" xmlns:xlink="http://www.w3.org/1999/xlink" width="70.172" height="75.004" viewBox="0 0 70.172 75.004">
  <defs>
    <filter id="cib-svelte" x="0" y="0" width="70.172" height="75.004" filterUnits="userSpaceOnUse">
      <feOffset dy="3" input="SourceAlpha"/>
      <feGaussianBlur stdDeviation="3" result="blur"/>
      <feFlood flood-opacity="0.161"/>
      <feComposite operator="in" in2="blur"/>
      <feComposite in="SourceGraphic"/>
    </filter>
  </defs>
  <g transform="matrix(1, 0, 0, 1, 0, 0)" filter="url(#cib-svelte)">
    <path id="cib-svelte-2" data-name="cib-svelte" d="M39.234,6.137a14.527,14.527,0,0,0-19.188-4.1L9.06,9.067a13.414,13.414,0,0,0-5.712,8.349,13.149,13.149,0,0,0,1.318,8.5,14.378,14.378,0,0,0-1.9,4.687A13.709,13.709,0,0,0,4.959,40.7a14.316,14.316,0,0,0,19.188,4.1l10.986-7.031A12.667,12.667,0,0,0,40.7,29.426a13.149,13.149,0,0,0-1.318-8.5A13.011,13.011,0,0,0,39.234,6.137ZM19.02,41.291a8.5,8.5,0,0,1-9.228-3.515A7.414,7.414,0,0,1,8.474,31.77V30.745l.146-.586.586.439a16.744,16.744,0,0,0,4.248,2.2l.439.146v.439a2.953,2.953,0,0,0,.439,1.611,2.578,2.578,0,0,0,2.783,1.025c.293-.146.439-.146.732-.293L28.688,28.84a2.117,2.117,0,0,0,1.025-1.465,2.332,2.332,0,0,0-.439-1.9,2.578,2.578,0,0,0-2.783-1.025c-.293.146-.439.146-.732.293l-4.1,2.637a8.748,8.748,0,0,1-11.571-2.49A7.414,7.414,0,0,1,8.767,18.88a7.956,7.956,0,0,1,3.515-5.42L23.122,6.576a14.782,14.782,0,0,1,2.2-1.025A8.65,8.65,0,0,1,34.547,8.92a8.059,8.059,0,0,1,1.172,7.031l-.146.586-.586-.439a16.744,16.744,0,0,0-4.248-2.2l-.439-.146v-.439A2.953,2.953,0,0,0,29.86,11.7a2.578,2.578,0,0,0-2.783-1.025c-.293.146-.439.146-.732.293L15.359,18a2.117,2.117,0,0,0-1.025,1.465,1.925,1.925,0,0,0,.439,1.758,2.578,2.578,0,0,0,2.783,1.025c.293-.146.439-.146.732-.293l4.1-2.637a14.783,14.783,0,0,1,2.2-1.025,8.5,8.5,0,0,1,9.228,3.515,8.1,8.1,0,0,1,1.465,6.005,7.669,7.669,0,0,1-3.369,5.127L21.071,39.826a3.857,3.857,0,0,1-2.051,1.465Z" transform="translate(6.56 19.52) rotate(-19)" fill="#f73b00"/>
  </g>
</svg>
