<svg xmlns="http://www.w3.org/2000/svg" xmlns:xlink="http://www.w3.org/1999/xlink" width="67.637" height="67.637" viewBox="0 0 67.637 67.637">
  <defs>
    <filter id="Icon_simple-typescript" x="0" y="0" width="67.637" height="67.637" filterUnits="userSpaceOnUse">
      <feOffset dy="3" input="SourceAlpha"/>
      <feGaussianBlur stdDeviation="3" result="blur"/>
      <feFlood flood-opacity="0.161"/>
      <feComposite operator="in" in2="blur"/>
      <feComposite in="SourceGraphic"/>
    </filter>
  </defs>
  <g transform="matrix(1, 0, 0, 1, 0, 0)" filter="url(#Icon_simple-typescript)">
    <path id="Icon_simple-typescript-2" data-name="Icon simple-typescript" d="M0,19.525V39.051H39.051V0H0ZM31.47,17.97a4.855,4.855,0,0,1,2.442,1.407,6.312,6.312,0,0,1,.936,1.253c.013.049-1.686,1.188-2.714,1.827-.037.024-.187-.137-.353-.384a2.215,2.215,0,0,0-1.835-1.1c-1.185-.081-1.946.539-1.94,1.573a1.432,1.432,0,0,0,.166.732c.26.539.745.862,2.262,1.518,2.8,1.2,3.993,2,4.737,3.124a5.668,5.668,0,0,1,.452,4.761,5.227,5.227,0,0,1-4.32,3.092,11.915,11.915,0,0,1-2.974-.029,7.181,7.181,0,0,1-3.973-2.071,6.878,6.878,0,0,1-1.017-1.505,2.572,2.572,0,0,1,.358-.229c.176-.1.831-.478,1.451-.838l1.123-.651.236.348a5.246,5.246,0,0,0,1.481,1.419,3.624,3.624,0,0,0,3.8-.192A1.694,1.694,0,0,0,32,29.858c-.3-.433-.923-.8-2.683-1.562a9.658,9.658,0,0,1-3.676-2.262,5.15,5.15,0,0,1-1.072-1.953A7.854,7.854,0,0,1,24.5,21.59a4.758,4.758,0,0,1,4-3.707,9.884,9.884,0,0,1,2.963.086ZM22.3,19.6l.013,1.6H17.231V35.642h-3.6V21.2H8.555V19.631A15.606,15.606,0,0,1,8.6,18.02c.02-.026,3.113-.039,6.862-.033l6.826.02Z" transform="translate(9 18.71) rotate(-19)" fill="#2f74c0"/>
  </g>
</svg>
