<svg xmlns="http://www.w3.org/2000/svg" width="22.815" height="22.808" viewBox="0 0 22.815 22.808">
  <path id="Icon_awesome-codepen" data-name="Icon awesome-codepen" d="M22.382,7.114,11.955.165a.991.991,0,0,0-1.095,0L.433,7.114A1,1,0,0,0,0,7.929v6.949a1,1,0,0,0,.433.815l10.427,6.95a.991.991,0,0,0,1.095,0l10.427-6.95a1,1,0,0,0,.433-.815V7.929a1,1,0,0,0-.433-.815Zm-9.994-4.3,7.677,5.116L16.64,10.22,12.388,7.381Zm-1.961,0V7.381L6.175,10.22,2.75,7.929ZM1.961,9.761,4.418,11.4,1.961,13.045Zm8.466,10.233L2.75,14.878l3.425-2.291,4.252,2.838Zm.98-6.275L7.944,11.4l3.463-2.316L14.87,11.4Zm.98,6.275V15.425l4.252-2.838,3.425,2.291Zm8.466-6.949L18.4,11.4l2.457-1.642Z" fill="#f0f0f0"/>
</svg>
