<svg xmlns="http://www.w3.org/2000/svg" width="22.815" height="22.81" viewBox="0 0 22.815 22.81">
  <path id="Icon_awesome-instagram" data-name="Icon awesome-instagram" d="M11.4,7.794a5.848,5.848,0,1,0,5.848,5.848A5.839,5.839,0,0,0,11.4,7.794Zm0,9.65a3.8,3.8,0,1,1,3.8-3.8A3.809,3.809,0,0,1,11.4,17.444Zm7.451-9.889a1.364,1.364,0,1,1-1.364-1.364A1.361,1.361,0,0,1,18.856,7.555ZM22.729,8.94A6.75,6.75,0,0,0,20.887,4.16a6.8,6.8,0,0,0-4.779-1.842c-1.883-.107-7.528-.107-9.411,0A6.785,6.785,0,0,0,1.917,4.155,6.772,6.772,0,0,0,.075,8.934c-.107,1.883-.107,7.528,0,9.411a6.75,6.75,0,0,0,1.842,4.779A6.8,6.8,0,0,0,6.7,24.967c1.883.107,7.528.107,9.411,0a6.75,6.75,0,0,0,4.779-1.842,6.8,6.8,0,0,0,1.842-4.779c.107-1.883.107-7.523,0-9.406ZM20.3,20.366a3.849,3.849,0,0,1-2.168,2.168c-1.5.6-5.064.458-6.724.458s-5.227.132-6.724-.458a3.849,3.849,0,0,1-2.168-2.168c-.6-1.5-.458-5.064-.458-6.724s-.132-5.227.458-6.724A3.849,3.849,0,0,1,4.681,4.751c1.5-.6,5.064-.458,6.724-.458s5.227-.132,6.724.458A3.849,3.849,0,0,1,20.3,6.919c.6,1.5.458,5.064.458,6.724S20.892,18.87,20.3,20.366Z" transform="translate(0.005 -2.238)" fill="#f0f0f0"/>
</svg>
