<svg xmlns="http://www.w3.org/2000/svg" width="30" height="30" viewBox="0 0 30 30">
  <path id="Icon_simple-next-dot-js" data-name="Icon simple-next-dot-js" d="M22.267,28.13c-.111.059-.105.083.006.026a.285.285,0,0,0,.088-.059C22.361,28.077,22.359,28.08,22.267,28.13Zm.223-.118c-.053.041-.053.044.011.011a.18.18,0,0,0,.065-.044C22.566,27.956,22.551,27.962,22.49,28.012Zm.146-.089c-.053.041-.053.044.011.011a.18.18,0,0,0,.065-.044C22.712,27.867,22.7,27.874,22.636,27.924Zm.146-.088c-.052.041-.052.044.011.011a.18.18,0,0,0,.065-.044C22.859,27.78,22.844,27.786,22.782,27.836Zm.2-.131c-.1.065-.135.109-.044.059.065-.037.17-.118.153-.12A.583.583,0,0,0,22.985,27.7ZM14.018.008c-.065.006-.27.026-.455.041A15.033,15.033,0,0,0,2.784,6.266,14.846,14.846,0,0,0,.137,12.82,11.5,11.5,0,0,0,0,15.005,11.509,11.509,0,0,0,.137,17.19,15.062,15.062,0,0,0,10.4,29.31a15.85,15.85,0,0,0,3.166.656,27.549,27.549,0,0,0,2.874,0,15.143,15.143,0,0,0,5.4-1.58c.258-.133.308-.168.273-.2q-1.233-1.629-2.443-3.275l-2.4-3.24-3.005-4.448q-1.5-2.232-3.026-4.445c-.011,0-.024,1.974-.029,4.386a33.962,33.962,0,0,1-.065,4.5.53.53,0,0,1-.258.266c-.094.048-.176.056-.619.056H9.763L9.628,21.9a.553.553,0,0,1-.2-.214l-.061-.133.006-5.879.009-5.882.091-.114A.8.8,0,0,1,9.694,9.5c.12-.059.168-.065.675-.065.6,0,.7.024.854.194q1.825,2.716,3.619,5.452c1.948,2.953,4.609,6.984,5.918,8.964l2.375,3.6.12-.079a15.426,15.426,0,0,0,3.081-2.7,14.926,14.926,0,0,0,3.53-7.668A11.5,11.5,0,0,0,30,15.008a11.509,11.509,0,0,0-.135-2.185A15.062,15.062,0,0,0,19.606.7,15.69,15.69,0,0,0,16.483.049C16.2.021,14.263-.012,14.021.012Zm6.14,9.073a.589.589,0,0,1,.3.346c.024.076.029,1.706.024,5.38l-.009,5.273-.93-1.425-.933-1.425V13.4c0-2.478.011-3.87.029-3.938a.605.605,0,0,1,.29-.37c.12-.061.164-.068.625-.068C19.985,9.022,20.061,9.029,20.159,9.081Z" transform="translate(-0.002 -0.004)" fill="#0d1321"/>
</svg>
