<svg xmlns="http://www.w3.org/2000/svg" width="30" height="30.003" viewBox="0 0 30 30.003"><path d="M15,13.981a2.854,2.854,0,0,0-2.674,3.005A2.854,2.854,0,0,0,15,19.992a2.854,2.854,0,0,0,2.674-3.005A2.854,2.854,0,0,0,15,13.981ZM7.51,22.965,6.92,22.8C2.522,21.547,0,19.427,0,16.981s2.522-4.566,6.92-5.815L7.51,11l.166.658a35.688,35.688,0,0,0,1.7,5.027l.126.3-.126.3a35.349,35.349,0,0,0-1.7,5.027ZM6.646,12.7c-3.342,1.055-5.394,2.67-5.394,4.28S3.3,20.2,6.646,21.26a37.8,37.8,0,0,1,1.478-4.28A37.494,37.494,0,0,1,6.646,12.7ZM22.49,22.965l-.166-.659a35.422,35.422,0,0,0-1.7-5.026l-.126-.3.126-.3a35.519,35.519,0,0,0,1.705-5.027L22.49,11l.591.167C27.477,12.413,30,14.533,30,16.981s-2.523,4.566-6.919,5.815Zm-.614-5.984a37.46,37.46,0,0,1,1.478,4.28c3.344-1.057,5.394-2.671,5.394-4.28S26.7,13.757,23.354,12.7a37.55,37.55,0,0,1-1.477,4.28ZM6.637,12.694l-.166-.656C5.235,7.14,5.61,3.63,7.5,2.4c1.854-1.2,4.83.218,7.949,3.816l.425.49-.425.49a32.639,32.639,0,0,0-3.027,4.169l-.169.271-.294.028a26.583,26.583,0,0,0-4.731.857Zm2.37-9.315a1.594,1.594,0,0,0-.881.243C6.884,4.427,6.664,7.225,7.52,11a28.2,28.2,0,0,1,4.041-.7,34.5,34.5,0,0,1,2.565-3.574C12.176,4.59,10.33,3.378,9.007,3.378ZM20.994,31.988h0c-1.781,0-4.069-1.508-6.442-4.247l-.425-.49.425-.49a32.611,32.611,0,0,0,3.026-4.17l.169-.271.292-.028a26.551,26.551,0,0,0,4.734-.856l.59-.167.167.658c1.234,4.9.86,8.406-1.03,9.63a2.721,2.721,0,0,1-1.506.433Zm-5.12-4.75c1.95,2.134,3.8,3.345,5.119,3.345h0a1.589,1.589,0,0,0,.88-.243c1.242-.805,1.464-3.605.606-7.382a28.089,28.089,0,0,1-4.042.7,34.264,34.264,0,0,1-2.564,3.576Zm7.489-14.544-.59-.167a26.383,26.383,0,0,0-4.734-.857l-.293-.028-.169-.271A32.449,32.449,0,0,0,14.551,7.2l-.425-.49.425-.49C17.669,2.624,20.644,1.2,22.5,2.4c1.89,1.225,2.265,4.735,1.03,9.632Zm-4.925-2.4a28,28,0,0,1,4.043.7c.857-3.777.636-6.576-.606-7.381s-3.556.427-6,3.1A34.506,34.506,0,0,1,18.437,10.3Zm-9.43,21.69A2.721,2.721,0,0,1,7.5,31.555c-1.89-1.224-2.265-4.734-1.029-9.63l.165-.658.59.167a26.525,26.525,0,0,0,4.731.856l.294.028.168.271a32.7,32.7,0,0,0,3.028,4.17l.425.49-.425.49c-2.373,2.74-4.66,4.247-6.439,4.247ZM7.52,22.958c-.857,3.777-.636,6.577.606,7.382s3.554-.429,6-3.1a34.713,34.713,0,0,1-2.565-3.576,28.04,28.04,0,0,1-4.041-.7ZM15,23.84c-1.029,0-2.086-.051-3.145-.149l-.294-.028-.169-.271q-.9-1.451-1.687-2.981T8.248,17.28l-.125-.3.125-.3q.671-1.6,1.458-3.13c.517-1.006,1.086-2.009,1.687-2.981l.169-.271.294-.028a33.138,33.138,0,0,1,6.291,0l.292.028.167.271a43.71,43.71,0,0,1,3.146,6.112l.126.3-.126.3a43.119,43.119,0,0,1-3.146,6.112l-.168.271-.292.028C17.087,23.789,16.029,23.84,15,23.84Zm-2.746-1.523a32.312,32.312,0,0,0,5.494,0,42.259,42.259,0,0,0,2.745-5.336,41.643,41.643,0,0,0-2.746-5.336,32.3,32.3,0,0,0-5.492,0,41.486,41.486,0,0,0-2.746,5.336,42.415,42.415,0,0,0,2.746,5.336Z" transform="translate(0 -1.986)" fill="#0d1321"/></svg>