<svg xmlns="http://www.w3.org/2000/svg" width="30" height="30" viewBox="0 0 30 30"><path d="M0,15V30H30V0H0Zm24.176-1.2a3.73,3.73,0,0,1,1.876,1.081,4.849,4.849,0,0,1,.719.962c.01.037-1.3.913-2.085,1.4-.029.019-.144-.105-.271-.3A1.7,1.7,0,0,0,23,16.11c-.91-.063-1.5.414-1.49,1.209a1.1,1.1,0,0,0,.128.563c.2.414.572.662,1.737,1.166,2.149.925,3.067,1.534,3.639,2.4a4.354,4.354,0,0,1,.348,3.658,4.016,4.016,0,0,1-3.319,2.375,9.154,9.154,0,0,1-2.285-.023,5.516,5.516,0,0,1-3.053-1.591,5.284,5.284,0,0,1-.781-1.156,1.976,1.976,0,0,1,.275-.176c.135-.076.639-.368,1.115-.644l.862-.5.181.267a4.03,4.03,0,0,0,1.138,1.09,2.784,2.784,0,0,0,2.919-.147,1.3,1.3,0,0,0,.166-1.663c-.232-.333-.709-.612-2.061-1.2A7.42,7.42,0,0,1,19.7,20a3.956,3.956,0,0,1-.824-1.5,6.034,6.034,0,0,1-.052-1.914A3.655,3.655,0,0,1,21.9,13.739a7.593,7.593,0,0,1,2.276.066Zm-7.042,1.253.01,1.229H13.237v11.1H10.475V16.286h-3.9v-1.2A11.989,11.989,0,0,1,6.6,13.844c.015-.02,2.391-.03,5.271-.025l5.244.015Z" fill="#0d1321"/></svg>